<svg xmlns="http://www.w3.org/2000/svg" xmlns:xlink="http://www.w3.org/1999/xlink" version="1.1" x="0px" y="0px" viewBox="0 0 512 512" enable-background="new 0 0 512 512" xml:space="preserve"><path d="M373.5,143.5c-15.7,0-30.5,5.7-42.6,15.8c-0.1-0.1-0.3-0.2-0.5-0.3c0.1-1.4,0.5-2.9,0.5-4.3c0-47.5-35.9-86.1-80-86.1  c-18.9,0-36.9,7.2-51.1,20c-14.2-12.8-32.2-20-51.1-20c-44.1,0-80,38.6-80,86.1c0,39.4,81,130.8,112.7,165.1v123.8h37.5V318.9  c6.3-6.9,17.5-19.4,30.6-34.6c20.3,28.9,46.1,58.7,63.1,77.4v81.8H350v-82.6c31.8-35.2,93.3-107.8,93.3-141.1  C443.3,177.7,411.9,143.5,373.5,143.5z M218.5,219.8c0,8.3,3.9,19.1,10.1,31.1c-10.9,13-21.2,24.8-28.9,33.4  c-51.9-57.4-93.5-114.6-93.6-129.6c0-26.8,19.1-48.7,42.5-48.7c13.9,0,27,8,35.1,21.3l16,26.3l16-26.3c8.1-13.4,21.3-21.4,35.1-21.4  c20.2,0,37.1,16.2,41.4,37.9c-1.3-0.1-2.6-0.4-4-0.4C249.9,143.5,218.5,177.7,218.5,219.8z M330.9,326  c-37.8-43.2-74.2-92.3-74.9-106.2c0-21.4,14.5-38.8,32.3-38.8c10.4,0,20.3,6.2,26.4,16.6l16.1,27.4l16.1-27.4  c6.1-10.4,16-16.6,26.4-16.6c17.8,0,32.4,17.4,32.4,38.8C405.1,232.4,372.1,279,330.9,326z"></path></svg>